# xmcd
#
# Track frame offsets:
#	150
#	4980
#	19335
#	35233
#	48628
#	67913
#	83773
#	102960
#	120890
#	141559
#	162968
#	177335
#	193205
#	206638
#	225925
#	241748
#	260923
#	278820
#	299525
#
# Disc length: 4275 seconds
#
# Revision: 2
# Processed by: cddbd v1.5PL3 Copyright (c) Steve Scherf et al.
# Submitted via: BCDEx v0.0.9beta
#
DISCID=1910b113
DTITLE=てれび戦士2002 - 天てれ猫だまし
DTITLE=ぃ
DYEAR=2002
DGENRE=JPop
TTITLE0=LOVE JETS - 青い星 ★2002年度オ
TTITLE0=ープニング・テーマ(TVバージョン
TTITLE0=)
TTITLE1=SPACE FAIRY(白木杏奈、俵有希子
TTITLE1=、中村有沙) - 1-2-3
TTITLE2=Boys Be Boys(熊木翔、松井蘭丸、
TTITLE2=山元竜一) - 僕であるために
TTITLE3=ローブリィ翔 - クエスチョン
TTITLE4=T for TWO(俵有希子、俵小百合) 
TTITLE4=/ BYE BYE DAYS
TTITLE5=CHU-LIPS(飯田里穂、村田ちひろ)
TTITLE5=スピリチュアル
TTITLE6=岩井七世 - STEADY BOYS
TTITLE7=ギャラクシー(安齊舞、井出卓也、
TTITLE7=ブライアン・ウォルターズ、ジョ
TTITLE7=アン・ヤマザキ) - 星の軌跡
TTITLE8=村上東奈 - あこがれ〜acoustic 
TTITLE8=version〜
TTITLE9=てれび戦士2002 - LOVE IS POP ★
TTITLE9=2002年度エンディング・テーマ(フ
TTITLE9=ルバージョン)
TTITLE10=1-2-3 <オリジナルカラオケ>
TTITLE11=僕であるために <オリジナルカラ
TTITLE11=オケ>
TTITLE12=クエスチョン <オリジナルカラオ
TTITLE12=ケ>
TTITLE13=BYE BYE DAYS <オリジナルカラオ
TTITLE13=ケ>
TTITLE14=スピリチュアル <オリジナルカラ
TTITLE14=オケ>
TTITLE15=STEADY BOYS <オリジナルカラオケ
TTITLE15=>
TTITLE16=星の軌跡 <オリジナルカラオケ>
TTITLE17=あこがれ〜acoustic version〜 <
TTITLE17=オリジナルカラオケ>
TTITLE18=LOVE IS POP ★2002年度エンディ
TTITLE18=ング・テーマ(フルバージョン) <
TTITLE18=オリジナルカラオケ>
EXTD=
EXTT0=
EXTT1=
EXTT2=
EXTT3=コーラス：井出卓也、村上東奈
EXTT4=
EXTT5=コーラス：熊木翔、村上東奈
EXTT6=コーラス：T for TWO(俵有希子、
EXTT6=俵小百合)
EXTT7=
EXTT8=コーラス：遊佐未森
EXTT9=コーラス：森若香織
EXTT10=
EXTT11=
EXTT12=
EXTT13=
EXTT14=
EXTT15=
EXTT16=
EXTT17=
EXTT18=
PLAYORDER=
